<?xml version="1.0" encoding="UTF-8" standalone="no"?>
<!-- Created with Inkscape (http://www.inkscape.org/) -->

<svg
   xmlns:dc="http://purl.org/dc/elements/1.1/"
   xmlns:cc="http://creativecommons.org/ns#"
   xmlns:rdf="http://www.w3.org/1999/02/22-rdf-syntax-ns#"
   xmlns:svg="http://www.w3.org/2000/svg"
   xmlns="http://www.w3.org/2000/svg"
   xmlns:sodipodi="http://sodipodi.sourceforge.net/DTD/sodipodi-0.dtd"
   xmlns:inkscape="http://www.inkscape.org/namespaces/inkscape"
   width="19.799999mm"
   height="24.709999mm"
   viewBox="0 0 70.157478 87.555114"
   id="svg4723"
   version="1.1"
   inkscape:version="0.91 r13725"
   sodipodi:docname="trl_pattern_group_photo_bg.svg">
  <defs
     id="defs4725" />
  <sodipodi:namedview
     id="base"
     pagecolor="#ffffff"
     bordercolor="#666666"
     borderopacity="1.0"
     inkscape:pageopacity="0.0"
     inkscape:pageshadow="2"
     inkscape:zoom="4"
     inkscape:cx="33.949985"
     inkscape:cy="41.746808"
     inkscape:document-units="px"
     inkscape:current-layer="layer3"
     showgrid="false"
     fit-margin-top="0"
     fit-margin-left="0"
     fit-margin-right="0"
     fit-margin-bottom="0"
     inkscape:window-width="1366"
     inkscape:window-height="705"
     inkscape:window-x="-8"
     inkscape:window-y="-8"
     inkscape:window-maximized="1" />
  <metadata
     id="metadata4728">
    <rdf:RDF>
      <cc:Work
         rdf:about="">
        <dc:format>image/svg+xml</dc:format>
        <dc:type
           rdf:resource="http://purl.org/dc/dcmitype/StillImage" />
        <dc:title></dc:title>
      </cc:Work>
    </rdf:RDF>
  </metadata>
  <g
     inkscape:groupmode="layer"
     id="layer3"
     inkscape:label="Camada 3"
     style="opacity:0.99">
    <rect
       transform="translate(529.36445,-605.72751)"
       style="clip-rule:evenodd;fill:#848688;fill-rule:evenodd;stroke:#848688;stroke-width:0.70866138;image-rendering:optimizeQuality;shape-rendering:geometricPrecision;text-rendering:geometricPrecision"
       id="rect623"
       height="86.846451"
       width="69.448814"
       y="606.08185"
       x="-529.01013"
       class="fil5 str7" />
  </g>
  <g
     inkscape:groupmode="layer"
     id="layer2"
     inkscape:label="Camada 2">
    <path
       class="fil6"
       d="m 56.683018,27.46664 c 3.67648,0 6.648069,2.971589 6.648069,6.648069 0,3.676479 -2.971589,6.648069 -6.648069,6.648069 -3.676479,0 -6.648069,-2.97159 -6.648069,-6.648069 0,-3.67648 2.97159,-6.648069 6.648069,-6.648069 z"
       id="path626-3"
       inkscape:connector-curvature="0"
       style="clip-rule:evenodd;fill:#d7d7d6;fill-rule:nonzero;image-rendering:optimizeQuality;shape-rendering:geometricPrecision;text-rendering:geometricPrecision" />
    <path
       style="clip-rule:evenodd;fill:#414242;fill-rule:nonzero;image-rendering:optimizeQuality;shape-rendering:geometricPrecision;text-rendering:geometricPrecision"
       d="M 49.9375 42.296875 C 49.9375 42.296875 43.207031 42.380157 43.207031 48.585938 L 43.207031 53.796875 L 44.503906 50.988281 C 44.503906 50.988281 51.118898 51.072832 53.253906 56.214844 L 56.365234 56.214844 L 49.9375 42.296875 z "
       id="path628-5" />
    <path
       class="fil7"
       d="m 57.000909,56.215042 6.426927,-13.918095 c 0,0 6.730994,0.08293 6.730994,6.28871 0,6.191965 0,7.629385 0,7.629385 0,0 -13.199386,0 -13.157921,0 z"
       id="path630-9"
       inkscape:connector-curvature="0"
       style="clip-rule:evenodd;fill:#414242;fill-rule:nonzero;image-rendering:optimizeQuality;shape-rendering:geometricPrecision;text-rendering:geometricPrecision" />
    <polygon
       class="fil8"
       points="3035,4823 2700,4823 2365,4823 2700,5564 "
       id="polygon632-5"
       style="clip-rule:evenodd;fill:#ded81d;fill-opacity:1;fill-rule:nonzero;image-rendering:optimizeQuality;shape-rendering:geometricPrecision;text-rendering:geometricPrecision"
       transform="matrix(0.01382135,0,0,0.01382135,19.365382,-24.363408)" />
    <path
       style="clip-rule:evenodd;fill:#d7d7d6;fill-rule:nonzero;image-rendering:optimizeQuality;shape-rendering:geometricPrecision;text-rendering:geometricPrecision"
       inkscape:connector-curvature="0"
       id="path4208"
       d="m 13.455238,27.46664 c 3.67648,0 6.648069,2.971589 6.648069,6.648069 0,3.676479 -2.971589,6.648069 -6.648069,6.648069 -3.6764794,0 -6.6480689,-2.97159 -6.6480689,-6.648069 0,-3.67648 2.9715895,-6.648069 6.6480689,-6.648069 z"
       class="fil6" />
    <path
       style="clip-rule:evenodd;fill:#414242;fill-rule:nonzero;image-rendering:optimizeQuality;shape-rendering:geometricPrecision;text-rendering:geometricPrecision"
       inkscape:connector-curvature="0"
       id="path4210"
       d="M 13.137347,56.215042 6.7104203,42.296947 c 0,0 -6.73099373,0.08293 -6.73099373,6.28871 0,6.191965 0,7.629385 0,7.629385 0,0 13.21320543,0 13.15792043,0 z"
       class="fil7" />
    <path
       style="clip-rule:evenodd;fill:#414242;fill-rule:nonzero;image-rendering:optimizeQuality;shape-rendering:geometricPrecision;text-rendering:geometricPrecision"
       d="M 20.199219 42.296875 L 13.773438 56.214844 L 16.904297 56.214844 C 19.039356 51.072952 25.652344 50.988281 25.652344 50.988281 L 26.931641 53.757812 L 26.931641 48.585938 C 26.931641 42.380157 20.199219 42.296875 20.199219 42.296875 z "
       id="path4212" />
    <polygon
       transform="matrix(0.01382135,0,0,0.01382135,-23.862398,-24.363408)"
       style="clip-rule:evenodd;fill:#008bff;fill-opacity:1;fill-rule:nonzero;image-rendering:optimizeQuality;shape-rendering:geometricPrecision;text-rendering:geometricPrecision"
       id="polygon4214"
       points="3035,4823 2700,4823 2365,4823 2700,5564 "
       class="fil8" />
  </g>
  <g
     inkscape:label="Camada 1"
     inkscape:groupmode="layer"
     id="layer1"
     transform="translate(529.36445,-605.72751)">
    <path
       class="fil6"
       d="m -494.28571,635.98942 c 5.13802,0 9.29093,4.15291 9.29093,9.29092 0,5.13802 -4.15291,9.29093 -9.29093,9.29093 -5.13802,0 -9.29092,-4.15291 -9.29092,-9.29093 0,-5.13801 4.1529,-9.29092 9.29092,-9.29092 z"
       id="path626"
       inkscape:connector-curvature="0"
       style="clip-rule:evenodd;fill:#d7d7d6;fill-rule:nonzero;image-rendering:optimizeQuality;shape-rendering:geometricPrecision;text-rendering:geometricPrecision" />
    <path
       class="fil7"
       d="m -494.72997,676.16639 -8.98188,-19.45106 c 0,0 -9.40681,0.1159 -9.40681,8.78871 0,8.6535 0,10.66235 0,10.66235 0,0 18.46595,0 18.38869,0 z"
       id="path628"
       inkscape:connector-curvature="0"
       style="clip-rule:evenodd;fill:#414242;fill-rule:nonzero;image-rendering:optimizeQuality;shape-rendering:geometricPrecision;text-rendering:geometricPrecision;stroke:#ffffff;stroke-opacity:1;stroke-width:0;stroke-miterlimit:4;stroke-dasharray:none" />
    <path
       class="fil7"
       d="m -493.84144,676.16639 8.98187,-19.45106 c 0,0 9.40682,0.1159 9.40682,8.78871 0,8.6535 0,10.66235 0,10.66235 0,0 -18.44664,0 -18.38869,0 z"
       id="path630"
       inkscape:connector-curvature="0"
       style="clip-rule:evenodd;fill:#414242;fill-rule:nonzero;image-rendering:optimizeQuality;shape-rendering:geometricPrecision;text-rendering:geometricPrecision;stroke:#ffffff;stroke-opacity:1;stroke-width:0;stroke-miterlimit:4;stroke-dasharray:none" />
    <polygon
       class="fil8"
       points="2365,4823 2700,5564 3035,4823 2700,4823 "
       id="polygon632"
       style="clip-rule:evenodd;fill:#24c742;fill-opacity:1;fill-rule:nonzero;image-rendering:optimizeQuality;shape-rendering:geometricPrecision;text-rendering:geometricPrecision"
       transform="matrix(0.01931585,0,0,0.01931585,-546.43851,563.55497)" />
    <path
       style="clip-rule:evenodd;fill:#414242;fill-rule:nonzero;image-rendering:optimizeQuality;shape-rendering:geometricPrecision;text-rendering:geometricPrecision;stroke:#ffffff;stroke-opacity:1;stroke-width:0;stroke-miterlimit:4;stroke-dasharray:none"
       inkscape:connector-curvature="0"
       id="path4272"
       d="m -493.84144,676.16639 8.98187,-19.45106 c 0,0 9.40682,0.1159 9.40682,8.78871 0,8.6535 0,10.66235 0,10.66235 0,0 -18.44664,0 -18.38869,0 z"
       class="fil7" />
  </g>
</svg>
